<?xml version="1.0" encoding="UTF-8" standalone="no"?>
<!-- Created with Inkscape (http://www.inkscape.org/) -->

<svg
   width="7.7245932mm"
   height="2.3750703mm"
   viewBox="0 0 7.7245932 2.3750703"
   version="1.1"
   id="svg1"
   inkscape:export-filename="logo.svg"
   inkscape:export-xdpi="96"
   inkscape:export-ydpi="96"
   inkscape:version="1.3 (0e150ed6c4, 2023-07-21)"
   sodipodi:docname="drawing.svg"
   xmlns:inkscape="http://www.inkscape.org/namespaces/inkscape"
   xmlns:sodipodi="http://sodipodi.sourceforge.net/DTD/sodipodi-0.dtd"
   xmlns="http://www.w3.org/2000/svg"
   xmlns:svg="http://www.w3.org/2000/svg">
  <sodipodi:namedview
     id="namedview1"
     pagecolor="#000000"
     bordercolor="#000000"
     borderopacity="0.25"
     inkscape:showpageshadow="2"
     inkscape:pageopacity="0.0"
     inkscape:pagecheckerboard="0"
     inkscape:deskcolor="#d1d1d1"
     inkscape:document-units="mm"
     showgrid="true"
     inkscape:zoom="32"
     inkscape:cx="10.78125"
     inkscape:cy="5.328125"
     inkscape:window-width="2560"
     inkscape:window-height="1351"
     inkscape:window-x="2551"
     inkscape:window-y="-9"
     inkscape:window-maximized="1"
     inkscape:current-layer="layer1">
    <inkscape:grid
       id="grid1"
       units="mm"
       originx="0"
       originy="0"
       spacingx="1"
       spacingy="1"
       empcolor="#0099e5"
       empopacity="0.30196078"
       color="#0099e5"
       opacity="0.14901961"
       empspacing="5"
       dotted="false"
       gridanglex="30"
       gridanglez="30"
       visible="true" />
  </sodipodi:namedview>
  <defs
     id="defs1" />
  <g
     inkscape:label="Layer 1"
     inkscape:groupmode="layer"
     id="layer1"
     transform="translate(-59.047042,-104.74807)">
    <path
       id="text1"
       style="font-weight:bold;font-size:3.175px;font-family:Poppins;-inkscape-font-specification:'Poppins Bold';fill:#ffffff;stroke-width:0.264583"
       d="m 64.55885,104.74813 v 0.82217 c -0.05503,-0.0826 -0.131043,-0.14822 -0.22841,-0.19689 -0.09525,-0.0487 -0.201393,-0.0729 -0.31781,-0.0729 -0.14605,0 -0.278342,0.037 -0.396875,0.1111 -0.118533,0.0741 -0.21282,0.18023 -0.28267,0.31781 -0.06773,0.13758 -0.101286,0.29701 -0.101286,0.47904 0,0.18204 0.03355,0.34296 0.101286,0.48266 0.06985,0.13759 0.164137,0.24471 0.28267,0.32091 0.118533,0.0741 0.250825,0.11111 0.396875,0.11111 0.124883,0 0.233979,-0.0257 0.327112,-0.0765 0.09525,-0.0508 0.168308,-0.11843 0.219108,-0.20309 v 0.25425 h 0.543119 v -2.34973 z m -1.479496,0.55862 c -0.116417,0 -0.22256,0.0287 -0.31781,0.0858 -0.09525,0.055 -0.174212,0.13156 -0.237712,0.22893 v -0.29559 h -0.543119 v 1.77199 h 0.543119 v -0.82269 c 0,-0.14607 0.03355,-0.24724 0.101286,-0.30438 0.06773,-0.0593 0.169424,-0.0894 0.304891,-0.0894 h 0.149345 z m -4.032312,0.0191 0.482658,1.77199 h 0.596862 l 0.288872,-1.1498 0.279569,1.1498 h 0.599964 l 0.479557,-1.77199 h -0.511597 l -0.24753,1.26039 -0.301273,-1.26039 h -0.575159 l -0.298173,1.26711 -0.250631,-1.26711 z m 6.356201,0 v 0.44752 h 0.730188 l -0.736389,0.89245 v 0.4315 h 1.374593 v -0.44752 h -0.768429 l 0.752926,-0.89245 v -0.4315 z m -1.231966,0.44752 c 0.10795,0 0.199285,0.039 0.273368,0.1173 0.0762,0.0783 0.114205,0.18545 0.114205,0.32091 0,0.13547 -0.03801,0.2426 -0.114205,0.32092 -0.07408,0.0783 -0.165418,0.1173 -0.273368,0.1173 -0.10795,0 -0.199752,-0.039 -0.275952,-0.1173 -0.07408,-0.0804 -0.111105,-0.18855 -0.111105,-0.32402 0,-0.13546 0.03702,-0.24161 0.111105,-0.31781 0.0762,-0.0783 0.168002,-0.1173 0.275952,-0.1173 z"
       sodipodi:nodetypes="cccsscsccscccccccccccccscscccccccccccccccccccccccccccscscscscs" />
    <rect
       style="fill:#ffffff;fill-opacity:1;stroke-width:0.417109"
       id="rect11-5"
       width="2.940387"
       height="0.29252288"
       x="60.138966"
       y="104.74807"
       ry="0.1" />
    <rect
       style="fill:#9aeef1;fill-opacity:1;stroke-width:0.284547"
       id="rect11-5-0"
       width="1.3683951"
       height="0.29252288"
       x="65.403244"
       y="104.74807"
       ry="0.1" />
    <path
       id="rect11-5-1"
       style="fill:#f3c8c6;fill-opacity:1;stroke-width:0.179265"
       d="m 59.147043,104.74807 h 0.343121 c 0.0554,0 0.1,0.0446 0.1,0.1 v 0.0925 c 0,0.0554 -0.0446,0.1 -0.1,0.1 h -0.343121 c -0.0554,0 -0.1,-0.0446 -0.1,-0.1 v -0.0925 c 0,-0.0554 0.0446,-0.1 0.1,-0.1 z" />
  </g>
</svg>
